<svg width="256" height="256" viewBox="0 0 256 256" fill="none" xmlns="http://www.w3.org/2000/svg">
<rect width="256" height="256" rx="32" fill="url(#paint0_linear_25_2)"/>
<path d="M100.824 145.736C99.864 145.736 99.384 145.256 99.384 144.296C99.384 143.336 99.864 142.856 100.824 142.856C101.784 142.856 102.264 143.336 102.264 144.296C102.264 145.256 101.784 145.736 100.824 145.736ZM100.824 151.496C99.864 151.496 99.384 151.016 99.384 150.056C99.384 149.096 99.864 148.616 100.824 148.616C101.784 148.616 102.264 149.096 102.264 150.056C102.264 151.016 101.784 151.496 100.824 151.496ZM100.824 157.256C99.864 157.256 99.384 156.776 99.384 155.816C99.384 154.856 99.864 154.376 100.824 154.376C101.784 154.376 102.264 154.856 102.264 155.816C102.264 156.776 101.784 157.256 100.824 157.256ZM100.824 162.728C99.864 162.728 99.384 162.248 99.384 161.288C99.384 160.328 99.864 159.848 100.824 159.848C101.784 159.848 102.264 160.328 102.264 161.288C102.264 162.248 101.784 162.728 100.824 162.728ZM100.824 168.776C99.864 168.776 99.384 168.296 99.384 167.336C99.384 166.376 99.864 165.896 100.824 165.896C101.784 165.896 102.264 166.376 102.264 167.336C102.264 168.296 101.784 168.776 100.824 168.776ZM100.824 173.96C99.864 173.96 99.384 173.48 99.384 172.52C99.384 171.56 99.864 171.08 100.824 171.08C101.784 171.08 102.264 171.56 102.264 172.52C102.264 173.48 101.784 173.96 100.824 173.96ZM100.824 179C99.864 179 99.384 178.52 99.384 177.56C99.384 176.6 99.864 176.12 100.824 176.12C101.784 176.12 102.264 176.6 102.264 177.56C102.264 178.52 101.784 179 100.824 179ZM100.824 108.44C99.864 108.44 99.384 107.96 99.384 107C99.384 106.04 99.864 105.56 100.824 105.56C101.784 105.56 102.264 106.04 102.264 107C102.264 107.96 101.784 108.44 100.824 108.44ZM100.824 123.272C99.864 123.272 99.384 122.792 99.384 121.832C99.384 120.872 99.864 120.392 100.824 120.392C101.784 120.392 102.264 120.872 102.264 121.832C102.264 122.792 101.784 123.272 100.824 123.272ZM100.824 128.6C99.864 128.6 99.384 128.12 99.384 127.16C99.384 126.2 99.864 125.72 100.824 125.72C101.784 125.72 102.264 126.2 102.264 127.16C102.264 128.12 101.784 128.6 100.824 128.6ZM100.824 134.072C99.864 134.072 99.384 133.592 99.384 132.632C99.384 131.672 99.864 131.192 100.824 131.192C101.784 131.192 102.264 131.672 102.264 132.632C102.264 133.592 101.784 134.072 100.824 134.072ZM100.824 139.832C99.864 139.832 99.384 139.352 99.384 138.392C99.384 137.432 99.864 136.952 100.824 136.952C101.784 136.952 102.264 137.432 102.264 138.392C102.264 139.352 101.784 139.832 100.824 139.832ZM100.824 118.088C99.864 118.088 99.384 117.608 99.384 116.648C99.384 115.688 99.864 115.208 100.824 115.208C101.784 115.208 102.264 115.688 102.264 116.648C102.264 117.608 101.784 118.088 100.824 118.088ZM100.824 113.336C99.864 113.336 99.384 112.856 99.384 111.896C99.384 110.936 99.864 110.456 100.824 110.456C101.784 110.456 102.264 110.936 102.264 111.896C102.264 112.856 101.784 113.336 100.824 113.336ZM155.688 145.736C154.728 145.736 154.248 145.256 154.248 144.296C154.248 143.336 154.728 142.856 155.688 142.856C156.648 142.856 157.128 143.336 157.128 144.296C157.128 145.256 156.648 145.736 155.688 145.736ZM155.688 151.496C154.728 151.496 154.248 151.016 154.248 150.056C154.248 149.096 154.728 148.616 155.688 148.616C156.648 148.616 157.128 149.096 157.128 150.056C157.128 151.016 156.648 151.496 155.688 151.496ZM155.688 157.256C154.728 157.256 154.248 156.776 154.248 155.816C154.248 154.856 154.728 154.376 155.688 154.376C156.648 154.376 157.128 154.856 157.128 155.816C157.128 156.776 156.648 157.256 155.688 157.256ZM155.688 162.728C154.728 162.728 154.248 162.248 154.248 161.288C154.248 160.328 154.728 159.848 155.688 159.848C156.648 159.848 157.128 160.328 157.128 161.288C157.128 162.248 156.648 162.728 155.688 162.728ZM155.688 168.776C154.728 168.776 154.248 168.296 154.248 167.336C154.248 166.376 154.728 165.896 155.688 165.896C156.648 165.896 157.128 166.376 157.128 167.336C157.128 168.296 156.648 168.776 155.688 168.776ZM155.688 173.96C154.728 173.96 154.248 173.48 154.248 172.52C154.248 171.56 154.728 171.08 155.688 171.08C156.648 171.08 157.128 171.56 157.128 172.52C157.128 173.48 156.648 173.96 155.688 173.96ZM155.688 179C154.728 179 154.248 178.52 154.248 177.56C154.248 176.6 154.728 176.12 155.688 176.12C156.648 176.12 157.128 176.6 157.128 177.56C157.128 178.52 156.648 179 155.688 179ZM129.624 107.144C128.664 107.144 128.184 106.664 128.184 105.704C128.184 104.744 128.664 104.264 129.624 104.264C130.584 104.264 131.064 104.744 131.064 105.704C131.064 106.664 130.584 107.144 129.624 107.144ZM136.104 106.568C135.144 106.568 134.664 106.088 134.664 105.128C134.664 104.168 135.144 103.688 136.104 103.688C137.064 103.688 137.544 104.168 137.544 105.128C137.544 106.088 137.064 106.568 136.104 106.568ZM142.296 107.864C141.336 107.864 140.856 107.384 140.856 106.424C140.856 105.464 141.336 104.984 142.296 104.984C143.256 104.984 143.736 105.464 143.736 106.424C143.736 107.384 143.256 107.864 142.296 107.864ZM147.912 111.176C146.952 111.176 146.472 110.696 146.472 109.736C146.472 108.776 146.952 108.296 147.912 108.296C148.872 108.296 149.352 108.776 149.352 109.736C149.352 110.696 148.872 111.176 147.912 111.176ZM151.08 115.208C150.12 115.208 149.64 114.728 149.64 113.768C149.64 112.808 150.12 112.328 151.08 112.328C152.04 112.328 152.52 112.808 152.52 113.768C152.52 114.728 152.04 115.208 151.08 115.208ZM154.248 125.144C153.288 125.144 152.808 124.664 152.808 123.704C152.808 122.744 153.288 122.264 154.248 122.264C155.208 122.264 155.688 122.744 155.688 123.704C155.688 124.664 155.208 125.144 154.248 125.144ZM154.968 130.472C154.008 130.472 153.528 129.992 153.528 129.032C153.528 128.072 154.008 127.592 154.968 127.592C155.928 127.592 156.408 128.072 156.408 129.032C156.408 129.992 155.928 130.472 154.968 130.472ZM153.096 120.104C152.136 120.104 151.656 119.624 151.656 118.664C151.656 117.704 152.136 117.224 153.096 117.224C154.056 117.224 154.536 117.704 154.536 118.664C154.536 119.624 154.056 120.104 153.096 120.104ZM155.688 135.944C154.728 135.944 154.248 135.464 154.248 134.504C154.248 133.544 154.728 133.064 155.688 133.064C156.648 133.064 157.128 133.544 157.128 134.504C157.128 135.464 156.648 135.944 155.688 135.944ZM123.432 109.304C122.472 109.304 121.992 108.824 121.992 107.864C121.992 106.904 122.472 106.424 123.432 106.424C124.392 106.424 124.872 106.904 124.872 107.864C124.872 108.824 124.392 109.304 123.432 109.304ZM155.688 140.408C154.728 140.408 154.248 139.928 154.248 138.968C154.248 138.008 154.728 137.528 155.688 137.528C156.648 137.528 157.128 138.008 157.128 138.968C157.128 139.928 156.648 140.408 155.688 140.408ZM117.816 111.896C116.856 111.896 116.376 111.416 116.376 110.456C116.376 109.496 116.856 109.016 117.816 109.016C118.776 109.016 119.256 109.496 119.256 110.456C119.256 111.416 118.776 111.896 117.816 111.896ZM112.92 115.64C111.96 115.64 111.48 115.16 111.48 114.2C111.48 113.24 111.96 112.76 112.92 112.76C113.88 112.76 114.36 113.24 114.36 114.2C114.36 115.16 113.88 115.64 112.92 115.64ZM108.888 120.248C107.928 120.248 107.448 119.768 107.448 118.808C107.448 117.848 107.928 117.368 108.888 117.368C109.848 117.368 110.328 117.848 110.328 118.808C110.328 119.768 109.848 120.248 108.888 120.248ZM105.288 125.288C104.328 125.288 103.848 124.808 103.848 123.848C103.848 122.888 104.328 122.408 105.288 122.408C106.248 122.408 106.728 122.888 106.728 123.848C106.728 124.808 106.248 125.288 105.288 125.288ZM100.824 97.784C99.864 97.784 99.384 97.304 99.384 96.344C99.384 95.384 99.864 94.904 100.824 94.904C101.784 94.904 102.264 95.384 102.264 96.344C102.264 97.304 101.784 97.784 100.824 97.784ZM100.824 102.824C99.864 102.824 99.384 102.344 99.384 101.384C99.384 100.424 99.864 99.944 100.824 99.944C101.784 99.944 102.264 100.424 102.264 101.384C102.264 102.344 101.784 102.824 100.824 102.824ZM100.824 76.76C99.864 76.76 99.384 76.28 99.384 75.32C99.384 74.36 99.864 73.88 100.824 73.88C101.784 73.88 102.264 74.36 102.264 75.32C102.264 76.28 101.784 76.76 100.824 76.76ZM100.824 82.088C99.864 82.088 99.384 81.608 99.384 80.648C99.384 79.688 99.864 79.208 100.824 79.208C101.784 79.208 102.264 79.688 102.264 80.648C102.264 81.608 101.784 82.088 100.824 82.088ZM100.824 87.128C99.864 87.128 99.384 86.648 99.384 85.688C99.384 84.728 99.864 84.248 100.824 84.248C101.784 84.248 102.264 84.728 102.264 85.688C102.264 86.648 101.784 87.128 100.824 87.128ZM100.824 92.744C99.864 92.744 99.384 92.264 99.384 91.304C99.384 90.344 99.864 89.864 100.824 89.864C101.784 89.864 102.264 90.344 102.264 91.304C102.264 92.264 101.784 92.744 100.824 92.744Z" fill="black"/>
<defs>
<linearGradient id="paint0_linear_25_2" x1="256" y1="256" x2="0" y2="0" gradientUnits="userSpaceOnUse">
<stop stop-color="#00651C"/>
<stop offset="0.557292" stop-color="#00BB34" stop-opacity="0.882969"/>
<stop offset="1" stop-color="#00FF47" stop-opacity="0.79"/>
</linearGradient>
</defs>
</svg>
